<svg width="34" height="16" viewBox="0 0 34 16" fill="none" xmlns="http://www.w3.org/2000/svg">
<path d="M6.65058 15.5536H4.74841V2.94408L0.933838 4.34514V2.62705L6.354 0.591932H6.65058V15.5536Z" fill="white"/>
<path d="M21.2237 4.54967C21.2237 5.29282 21.0259 5.95415 20.6305 6.53366C20.2419 7.11317 19.7135 7.56656 19.0454 7.89381C19.8226 8.22789 20.4362 8.71536 20.8862 9.35624C21.343 9.99711 21.5714 10.7232 21.5714 11.5345C21.5714 12.8231 21.135 13.8492 20.2624 14.6128C19.3965 15.3764 18.2545 15.7582 16.8364 15.7582C15.4047 15.7582 14.2559 15.3764 13.39 14.6128C12.5309 13.8424 12.1014 12.8163 12.1014 11.5345C12.1014 10.73 12.3196 10.0039 12.7559 9.35624C13.1991 8.70854 13.8093 8.21766 14.5865 7.88359C13.9252 7.55633 13.4036 7.10295 13.0218 6.52343C12.64 5.94392 12.4491 5.286 12.4491 4.54967C12.4491 3.2952 12.8514 2.2998 13.6559 1.56347C14.4604 0.827147 15.5206 0.458984 16.8364 0.458984C18.1454 0.458984 19.2022 0.827147 20.0067 1.56347C20.818 2.2998 21.2237 3.2952 21.2237 4.54967ZM19.6794 11.4936C19.6794 10.6618 19.4135 9.98348 18.8817 9.4585C18.3568 8.93353 17.6682 8.67105 16.8159 8.67105C15.9637 8.67105 15.2785 8.93012 14.7604 9.44828C14.249 9.96643 13.9934 10.6482 13.9934 11.4936C13.9934 12.339 14.2422 13.0038 14.7399 13.4878C15.2444 13.9719 15.9433 14.2139 16.8364 14.2139C17.7227 14.2139 18.4181 13.9719 18.9226 13.4878C19.4272 12.997 19.6794 12.3322 19.6794 11.4936ZM16.8364 2.01345C16.0933 2.01345 15.4899 2.24525 15.0263 2.70886C14.5695 3.16566 14.3411 3.78949 14.3411 4.58036C14.3411 5.33713 14.5661 5.95074 15.016 6.42117C15.4728 6.88478 16.0796 7.11658 16.8364 7.11658C17.5932 7.11658 18.1966 6.88478 18.6465 6.42117C19.1033 5.95074 19.3317 5.33713 19.3317 4.58036C19.3317 3.82358 19.0965 3.20656 18.6261 2.72932C18.1556 2.25207 17.5591 2.01345 16.8364 2.01345Z" fill="white"/>
<path d="M29.5687 7.56656H33.7207V9.35624H29.5687V14.0605H27.6665V9.35624H23.5145V7.56656H27.6665V3.2202H29.5687V7.56656Z" fill="white"/>
</svg>
