<svg width="65" height="25" viewBox="0 0 65 25" fill="none" xmlns="http://www.w3.org/2000/svg">
<path d="M2.13083 9.04297H4.66756V2.45983H8.29324V9.04297H10.83V0.257196H2.13083V9.04297ZM17.0114 9.19146C19.6595 9.19146 21.7261 7.38481 21.7261 4.65008C21.7261 1.87823 19.6595 0.108703 17.0114 0.108703C14.3633 0.108703 12.2968 1.87823 12.2968 4.65008C12.2968 7.38481 14.351 9.19146 17.0114 9.19146ZM17.0114 6.93933C15.675 6.93933 14.8707 5.93701 14.8707 4.65008C14.8707 3.36315 15.6874 2.36083 17.0114 2.36083C18.3479 2.36083 19.1522 3.36315 19.1522 4.65008C19.1522 5.93701 18.3479 6.93933 17.0114 6.93933ZM26.1323 5.38017L26.4416 2.45983H29.1021V9.04297H31.6389V0.257196H24.3009L23.7812 5.20693C23.6698 6.22162 23.4347 6.62997 22.5809 6.62997H22.3952V9.16671H22.5932C25.2166 9.16671 25.8724 7.9169 26.1323 5.38017ZM37.5484 9.04297L42.8446 0.257196H40.0975L38.0062 3.72201L35.717 0.257196H32.6853L36.5708 6.11025L34.8013 9.04297H37.5484ZM49.5536 9.04297H52.0903V0.257196H49.5536V3.89525C49.5536 3.89525 48.6255 4.05611 47.5366 4.05611C46.559 4.05611 46.064 3.69726 46.064 2.73206V0.257196H43.5273V2.73206C43.5273 5.3183 44.9009 6.25874 47.3015 6.25874C48.3533 6.25874 49.5536 6.09788 49.5536 6.09788V9.04297ZM53.9483 9.04297H56.4851L60.3582 3.7715V9.04297H62.895V0.257196H60.3582L56.4851 5.55341V0.257196H53.9483V9.04297ZM8.77018 24.043V15.2201H6.91404L4.16693 16.8411V19.1304L6.29532 17.9424V24.043H8.77018ZM14.1079 15.084C11.8929 15.084 10.5812 16.3709 10.5812 18.4126V20.8875C10.5812 22.9169 11.8929 24.2162 14.1079 24.2162C16.3229 24.2162 17.6346 22.9169 17.6346 20.8875V18.4126C17.6346 16.3709 16.3229 15.084 14.1079 15.084ZM14.1079 21.9888C13.4025 21.9888 13.0561 21.5062 13.0561 20.8133V18.4869C13.0561 17.7939 13.4025 17.3113 14.1079 17.3113C14.8132 17.3113 15.1597 17.7939 15.1597 18.4869V20.8133C15.1597 21.5062 14.8132 21.9888 14.1079 21.9888ZM25.8296 15.084C23.6146 15.084 22.303 16.3709 22.303 18.4126V20.8875C22.303 22.9169 23.6146 24.2162 25.8296 24.2162C28.0446 24.2162 29.3563 22.9169 29.3563 20.8875V18.4126C29.3563 16.3709 28.0446 15.084 25.8296 15.084ZM25.8296 21.9888C25.1243 21.9888 24.7778 21.5062 24.7778 20.8133V18.4869C24.7778 17.7939 25.1243 17.3113 25.8296 17.3113C26.535 17.3113 26.8815 17.7939 26.8815 18.4869V20.8133C26.8815 21.5062 26.535 21.9888 25.8296 21.9888ZM34.5183 15.084C32.3033 15.084 30.9916 16.3709 30.9916 18.4126V20.8875C30.9916 22.9169 32.3033 24.2162 34.5183 24.2162C36.7333 24.2162 38.0449 22.9169 38.0449 20.8875V18.4126C38.0449 16.3709 36.7333 15.084 34.5183 15.084ZM34.5183 21.9888C33.8129 21.9888 33.4664 21.5062 33.4664 20.8133V18.4869C33.4664 17.7939 33.8129 17.3113 34.5183 17.3113C35.2236 17.3113 35.5701 17.7939 35.5701 18.4869V20.8133C35.5701 21.5062 35.2236 21.9888 34.5183 21.9888ZM43.2069 15.084C40.9919 15.084 39.6802 16.3709 39.6802 18.4126V20.8875C39.6802 22.9169 40.9919 24.2162 43.2069 24.2162C45.4219 24.2162 46.7336 22.9169 46.7336 20.8875V18.4126C46.7336 16.3709 45.4219 15.084 43.2069 15.084ZM43.2069 21.9888C42.5015 21.9888 42.1551 21.5062 42.1551 20.8133V18.4869C42.1551 17.7939 42.5015 17.3113 43.2069 17.3113C43.9122 17.3113 44.2587 17.7939 44.2587 18.4869V20.8133C44.2587 21.5062 43.9122 21.9888 43.2069 21.9888ZM50.9565 22.7932H52.2558V24.043H54.7802V22.7932H59.1607V21.2587H54.7802V20.7266H57.5273C59.5566 20.7266 60.7941 19.8728 60.7941 17.9919C60.7941 16.2719 59.5566 15.2572 57.5273 15.2572H52.2558V19.1799H50.9565V20.7143H52.2558V21.2587H50.9565V22.7932ZM57.2179 17.4351C57.8861 17.4351 58.1955 17.7073 58.1955 18.2394C58.1955 18.7468 57.8737 19.0437 57.2179 19.0437H54.7802V17.4351H57.2179Z" fill="white"/>
<path d="M62.579 13.9681L62.5835 14.5606L62.0534 14.3646L61.8485 14.9125L62.4231 15.1175L62.0133 15.5941L62.4989 15.9728L62.8864 15.505L63.274 15.9683L63.7596 15.5897L63.3497 15.1175L63.9244 14.9125L63.7195 14.3646L63.1894 14.5606L63.1938 13.9681H62.579Z" fill="white"/>
</svg>
