<svg width="188" height="33" viewBox="0 0 188 33" fill="none" xmlns="http://www.w3.org/2000/svg">
<rect width="188" height="32.723" rx="3.89023" fill="#DA5035"/>
<path d="M13.065 21.1809H16.1388V13.204H20.532V21.1809H23.6058V10.5351H13.065V21.1809ZM31.096 21.3608C34.3047 21.3608 36.8087 19.1717 36.8087 15.858C36.8087 12.4993 34.3047 10.3552 31.096 10.3552C27.8872 10.3552 25.3832 12.4993 25.3832 15.858C25.3832 19.1717 27.8722 21.3608 31.096 21.3608ZM31.096 18.6319C29.4766 18.6319 28.502 17.4174 28.502 15.858C28.502 14.2986 29.4916 13.0841 31.096 13.0841C32.7153 13.0841 33.6899 14.2986 33.6899 15.858C33.6899 17.4174 32.7153 18.6319 31.096 18.6319ZM42.1478 16.7427L42.5226 13.204H45.7464V21.1809H48.8202V10.5351H39.9287L39.2989 16.5327C39.164 17.7623 38.8791 18.2571 37.8445 18.2571H37.6196V21.3308H37.8595C41.0382 21.3308 41.8329 19.8164 42.1478 16.7427ZM55.9808 21.1809L62.3982 10.5351H59.0696L56.5356 14.7334L53.7616 10.5351H50.0881L54.7962 17.6273L52.6521 21.1809H55.9808ZM70.5276 21.1809H73.6014V10.5351H70.5276V14.9434C70.5276 14.9434 69.4031 15.1383 68.0836 15.1383C66.8991 15.1383 66.2993 14.7035 66.2993 13.5339V10.5351H63.2255V13.5339C63.2255 16.6677 64.8898 17.8072 67.7987 17.8072C69.0732 17.8072 70.5276 17.6123 70.5276 17.6123V21.1809ZM75.8528 21.1809H78.9265L83.6197 14.7934V21.1809H86.6935V10.5351H83.6197L78.9265 16.9526V10.5351H75.8528V21.1809ZM92.152 21.1809H95.2108V13.1741H99.0643V10.5351H88.2986V13.1741H92.152V21.1809ZM106.97 13.6539H103.731V10.5351H100.672V21.1809H106.97C109.519 21.1809 111.078 19.9214 111.078 17.4174C111.078 14.9134 109.519 13.6539 106.97 13.6539ZM106.565 16.2928C107.494 16.2928 107.929 16.7127 107.929 17.4174C107.929 18.1821 107.494 18.5419 106.565 18.5419H103.731V16.2928H106.565ZM122.8 14.4935H119.501V13.1741H125.889V10.5351H116.442V21.1809H122.8C125.319 21.1809 126.848 20.0264 126.848 17.7173C126.848 15.5731 125.319 14.4935 122.8 14.4935ZM122.545 16.8926C123.325 16.8926 123.699 17.1925 123.699 17.7173C123.699 18.287 123.325 18.5419 122.545 18.5419H119.501V16.8926H122.545ZM133.902 21.3608C137.111 21.3608 139.615 19.1717 139.615 15.858C139.615 12.4993 137.111 10.3552 133.902 10.3552C130.693 10.3552 128.189 12.4993 128.189 15.858C128.189 19.1717 130.678 21.3608 133.902 21.3608ZM133.902 18.6319C132.283 18.6319 131.308 17.4174 131.308 15.858C131.308 14.2986 132.298 13.0841 133.902 13.0841C135.522 13.0841 136.496 14.2986 136.496 15.858C136.496 17.4174 135.522 18.6319 133.902 18.6319ZM141.393 21.1809H144.467V17.1925H149.01V21.1809H152.084V10.5351H149.01V14.5235H144.467V10.5351H141.393V21.1809ZM159.256 21.1809L165.673 10.5351H162.344L159.81 14.7334L157.036 10.5351H153.363L158.071 17.6273L155.927 21.1809H159.256ZM171.427 21.3608C175.176 21.3608 176.376 18.6169 176.525 17.6273H173.422C173.257 17.8822 172.717 18.6169 171.427 18.6169C169.913 18.6169 169.013 17.3874 169.013 15.858C169.013 14.3286 169.913 13.0991 171.427 13.0991C172.687 13.0991 173.242 13.8488 173.407 14.1037H176.525C176.331 12.9042 175.056 10.3552 171.427 10.3552C168.159 10.3552 165.88 12.6493 165.88 15.858C165.88 19.0517 168.159 21.3608 171.427 21.3608Z" fill="white"/>
</svg>
