<svg width="176" height="15" viewBox="0 0 176 15" fill="none" xmlns="http://www.w3.org/2000/svg">
<path d="M0.169922 14.5764H3.76806V5.23874H8.91077V14.5764H12.5089V2.1145H0.169922V14.5764Z" fill="white"/>
<path d="M21.2768 14.787C25.0329 14.787 27.9641 12.2244 27.9641 8.34543C27.9641 4.4138 25.0329 1.90388 21.2768 1.90388C17.5207 1.90388 14.5895 4.4138 14.5895 8.34543C14.5895 12.2244 17.5031 14.787 21.2768 14.787ZM21.2768 11.5925C19.3812 11.5925 18.2403 10.1708 18.2403 8.34543C18.2403 6.52003 19.3987 5.09833 21.2768 5.09833C23.1724 5.09833 24.3133 6.52003 24.3133 8.34543C24.3133 10.1708 23.1724 11.5925 21.2768 11.5925Z" fill="white"/>
<path d="M34.2139 9.38099L34.6527 5.23874H38.4264V14.5764H42.0245V2.1145H31.6162L30.879 9.13527C30.7211 10.5745 30.3876 11.1537 29.1765 11.1537H28.9132V14.7519H29.1941C32.9151 14.7519 33.8453 12.9791 34.2139 9.38099Z" fill="white"/>
<path d="M50.4066 14.5764L57.9189 2.1145H54.0223L51.0561 7.02904L47.809 2.1145H43.5087L49.02 10.4166L46.5101 14.5764H50.4066Z" fill="white"/>
<path d="M67.435 14.5764H71.0332V2.1145H67.435V7.27476C67.435 7.27476 66.1186 7.50294 64.5741 7.50294C63.1875 7.50294 62.4854 6.99393 62.4854 5.62488V2.1145H58.8872V5.62488C58.8872 9.29323 60.8355 10.6272 64.2406 10.6272C65.7325 10.6272 67.435 10.399 67.435 10.399V14.5764Z" fill="white"/>
<path d="M73.6686 14.5764H77.2667L82.7605 7.09924V14.5764H86.3586V2.1145H82.7605L77.2667 9.62672V2.1145H73.6686V14.5764Z" fill="white"/>
<path d="M99.0866 14.5764V2.06185H96.4538L92.5573 4.36115V7.60825L95.5762 5.92327V14.5764H99.0866Z" fill="white"/>
<path d="M106.658 1.86877C103.516 1.86877 101.655 3.69417 101.655 6.59024V10.1006C101.655 12.9791 103.516 14.8221 106.658 14.8221C109.799 14.8221 111.66 12.9791 111.66 10.1006V6.59024C111.66 3.69417 109.799 1.86877 106.658 1.86877ZM106.658 11.6627C105.657 11.6627 105.166 10.9782 105.166 9.99531V6.69555C105.166 5.71264 105.657 5.02812 106.658 5.02812C107.658 5.02812 108.15 5.71264 108.15 6.69555V9.99531C108.15 10.9782 107.658 11.6627 106.658 11.6627Z" fill="white"/>
<path d="M123.284 1.86877C120.142 1.86877 118.282 3.69417 118.282 6.59024V10.1006C118.282 12.9791 120.142 14.8221 123.284 14.8221C126.426 14.8221 128.286 12.9791 128.286 10.1006V6.59024C128.286 3.69417 126.426 1.86877 123.284 1.86877ZM123.284 11.6627C122.284 11.6627 121.792 10.9782 121.792 9.99531V6.69555C121.792 5.71264 122.284 5.02812 123.284 5.02812C124.284 5.02812 124.776 5.71264 124.776 6.69555V9.99531C124.776 10.9782 124.284 11.6627 123.284 11.6627Z" fill="white"/>
<path d="M135.608 1.86877C132.466 1.86877 130.606 3.69417 130.606 6.59024V10.1006C130.606 12.9791 132.466 14.8221 135.608 14.8221C138.75 14.8221 140.61 12.9791 140.61 10.1006V6.59024C140.61 3.69417 138.75 1.86877 135.608 1.86877ZM135.608 11.6627C134.608 11.6627 134.116 10.9782 134.116 9.99531V6.69555C134.116 5.71264 134.608 5.02812 135.608 5.02812C136.608 5.02812 137.1 5.71264 137.1 6.69555V9.99531C137.1 10.9782 136.608 11.6627 135.608 11.6627Z" fill="white"/>
<path d="M147.932 1.86877C144.79 1.86877 142.93 3.69417 142.93 6.59024V10.1006C142.93 12.9791 144.79 14.8221 147.932 14.8221C151.074 14.8221 152.934 12.9791 152.934 10.1006V6.59024C152.934 3.69417 151.074 1.86877 147.932 1.86877ZM147.932 11.6627C146.932 11.6627 146.44 10.9782 146.44 9.99531V6.69555C146.44 5.71264 146.932 5.02812 147.932 5.02812C148.933 5.02812 149.424 5.71264 149.424 6.69555V9.99531C149.424 10.9782 148.933 11.6627 147.932 11.6627Z" fill="white"/>
<path d="M158.924 12.8036H160.767V14.5764H164.348V12.8036H170.561V10.6272H164.348V9.87245H168.244C171.123 9.87245 172.878 8.66136 172.878 5.99347C172.878 3.55376 171.123 2.1145 168.244 2.1145H160.767V7.67846H158.924V9.85489H160.767V10.6272H158.924V12.8036ZM167.805 5.20364C168.753 5.20364 169.192 5.58978 169.192 6.34451C169.192 7.06414 168.736 7.48539 167.805 7.48539H164.348V5.20364H167.805Z" fill="white"/>
<path d="M173.467 0.930542L173.473 1.76553L172.726 1.48929L172.438 2.2615L173.247 2.5503L172.67 3.22205L173.354 3.75569L173.9 3.09649L174.446 3.74942L175.131 3.21578L174.553 2.5503L175.363 2.2615L175.074 1.48929L174.327 1.76553L174.333 0.930542H173.467Z" fill="white"/>
</svg>
