<svg width="310" height="36" viewBox="0 0 310 36" fill="none" xmlns="http://www.w3.org/2000/svg">
<path d="M14.4934 1.35644H0.0717773V8.08004H7.57493V34H14.4934V1.35644Z" fill="#06DCFF"/>
<path d="M19.2682 21.4298C19.2682 29.274 24.8712 34.7309 32.3743 34.7309C39.8775 34.7309 45.7728 29.3715 45.7728 21.4298V13.8779C45.7728 5.93628 39.9262 0.62561 32.4717 0.62561C24.9686 0.62561 19.2682 5.985 19.2682 13.9267V21.4298ZM26.1866 13.9267C26.1866 9.88275 28.8663 7.49538 32.4717 7.49538C36.1259 7.49538 38.8056 9.93147 38.8056 13.8779V21.4298C38.8056 25.425 36.0284 27.8124 32.3743 27.8124C28.8176 27.8124 26.1866 25.4737 26.1866 21.4298V13.9267Z" fill="#06DCFF"/>
<path d="M60.3296 21.4298C60.3296 29.274 65.9326 34.7309 73.4357 34.7309C80.9389 34.7309 86.8342 29.3715 86.8342 21.4298V13.8779C86.8342 5.93628 80.9876 0.62561 73.5332 0.62561C66.03 0.62561 60.3296 5.985 60.3296 13.9267V21.4298ZM67.2481 13.9267C67.2481 9.88275 69.9277 7.49538 73.5332 7.49538C77.1873 7.49538 79.867 9.93147 79.867 13.8779V21.4298C79.867 25.425 77.0898 27.8124 73.4357 27.8124C69.879 27.8124 67.2481 25.4737 67.2481 21.4298V13.9267Z" fill="#06DCFF"/>
<path d="M90.6855 21.4298C90.6855 29.274 96.2885 34.7309 103.792 34.7309C111.295 34.7309 117.19 29.3715 117.19 21.4298V13.8779C117.19 5.93628 111.344 0.62561 103.889 0.62561C96.3859 0.62561 90.6855 5.985 90.6855 13.9267V21.4298ZM97.604 13.9267C97.604 9.88275 100.284 7.49538 103.889 7.49538C107.543 7.49538 110.223 9.93147 110.223 13.8779V21.4298C110.223 25.425 107.446 27.8124 103.792 27.8124C100.235 27.8124 97.604 25.4737 97.604 21.4298V13.9267Z" fill="#06DCFF"/>
<path d="M121.041 21.4298C121.041 29.274 126.644 34.7309 134.148 34.7309C141.651 34.7309 147.546 29.3715 147.546 21.4298V13.8779C147.546 5.93628 141.699 0.62561 134.245 0.62561C126.742 0.62561 121.041 5.985 121.041 13.9267V21.4298ZM127.96 13.9267C127.96 9.88275 130.64 7.49538 134.245 7.49538C137.899 7.49538 140.579 9.93147 140.579 13.8779V21.4298C140.579 25.425 137.802 27.8124 134.148 27.8124C130.591 27.8124 127.96 25.4737 127.96 21.4298V13.9267Z" fill="#06DCFF"/>
<path d="M182.056 20.5528C195.844 20.5528 195.795 1.35644 182.056 1.35644H167.975V14.56H163.834V20.5528H167.975V23.1838H163.834V29.1766H167.975V34H174.894V29.1766H187.659V23.1838H174.894V20.5528H182.056ZM181.52 8.08004C186.392 8.08004 186.343 14.56 181.52 14.56H174.894V8.08004H181.52Z" fill="#06DCFF"/>
<path d="M205.337 15.0001H208.991V10.2583H214.393V15.0001H218.047V2.34343H214.393V7.08521H208.991V2.34343H205.337V15.0001Z" fill="white"/>
<path d="M226.965 15.214C230.78 15.214 233.757 12.6113 233.757 8.67175C233.757 4.67867 230.78 2.12952 226.965 2.12952C223.15 2.12952 220.173 4.67867 220.173 8.67175C220.173 12.6113 223.133 15.214 226.965 15.214ZM226.965 11.9696C225.04 11.9696 223.881 10.5257 223.881 8.67175C223.881 6.81782 225.058 5.37389 226.965 5.37389C228.89 5.37389 230.049 6.81782 230.049 8.67175C230.049 10.5257 228.89 11.9696 226.965 11.9696Z" fill="white"/>
<path d="M235.871 15.0001H243.822C246.763 15.0001 248.296 13.574 248.296 11.3992C248.296 9.68784 247.334 8.68957 246.264 8.29739C247.12 7.92304 247.957 7.08521 247.957 5.7839C247.957 3.7517 246.478 2.34343 243.715 2.34343H235.871V15.0001ZM243.002 5.19563C243.75 5.19563 244.232 5.46302 244.232 6.14042C244.232 6.81782 243.75 7.08521 243.002 7.08521H239.454V5.19563H243.002ZM243.055 9.93741C244.018 9.93741 244.553 10.2761 244.553 11.0426C244.553 11.7913 244.018 12.1479 243.055 12.1479H239.454V9.93741H243.055Z" fill="white"/>
<path d="M257.877 6.05129H254.026V2.34343H250.39V15.0001H257.877C260.907 15.0001 262.761 13.5027 262.761 10.5257C262.761 7.54869 260.907 6.05129 257.877 6.05129ZM263.92 15.0001H267.574V2.34343H263.92V15.0001ZM257.396 9.18871C258.501 9.18871 259.018 9.68784 259.018 10.5257C259.018 11.4348 258.501 11.8626 257.396 11.8626H254.026V9.18871H257.396Z" fill="white"/>
<path d="M270.253 15.0001H273.604V6.42564L276.706 15.0001H279.13L282.286 6.35433V15.0001H285.851V2.34343H280.788L278.168 9.36697L275.547 2.34343H270.253V15.0001Z" fill="white"/>
<path d="M205.337 35.0001H208.991L214.571 27.4061V35.0001H218.225V22.3434H214.571L208.991 29.9731V22.3434H205.337V35.0001Z" fill="white"/>
<path d="M220.9 35.0001H224.554V25.4808H232.291V22.3434H220.9V35.0001Z" fill="white"/>
<path d="M234.165 35.0001H237.802V30.9357H241.938C244.861 30.9357 246.644 29.4561 246.644 26.6396C246.644 23.8052 244.861 22.3434 241.938 22.3434H234.165V35.0001ZM241.492 25.4808C242.454 25.4808 242.9 25.873 242.9 26.6396C242.9 27.3704 242.437 27.7983 241.492 27.7983H237.802V25.4808H241.492Z" fill="white"/>
<path d="M254.906 35.214C258.72 35.214 261.697 32.6113 261.697 28.6717C261.697 24.6787 258.72 22.1295 254.906 22.1295C251.091 22.1295 248.114 24.6787 248.114 28.6717C248.114 32.6113 251.073 35.214 254.906 35.214ZM254.906 31.9696C252.98 31.9696 251.822 30.5257 251.822 28.6717C251.822 26.8178 252.998 25.3739 254.906 25.3739C256.831 25.3739 257.99 26.8178 257.99 28.6717C257.99 30.5257 256.831 31.9696 254.906 31.9696Z" fill="white"/>
<path d="M263.812 35.0001H267.466V29.4739L272.529 35.0001H277.467L271.388 28.3865L277.199 22.3434H272.529L267.466 27.62V22.3434H263.812V35.0001Z" fill="white"/>
<path d="M288.235 35.0001H292.174L286.809 22.3434H282.869L277.468 35.0001H281.176L281.906 33.2174H287.504L288.235 35.0001ZM283.154 30.2226L284.705 26.4435L286.256 30.2226H283.154Z" fill="white"/>
<path d="M293.685 35.0001H297.036V26.4256L300.138 35.0001H302.562L305.717 26.3543V35.0001H309.283V22.3434H304.22L301.6 29.367L298.979 22.3434H293.685V35.0001Z" fill="white"/>
<path d="M195.586 2.09436L195.597 3.51524L194.326 3.04517L193.834 4.35922L195.212 4.85065L194.23 5.99376L195.394 6.90184L196.323 5.7801L197.253 6.89116L198.417 5.98308L197.434 4.85065L198.813 4.35922L198.321 3.04517L197.05 3.51524L197.061 2.09436H195.586Z" fill="#06DCFF"/>
</svg>
