<svg width="137" height="10" viewBox="0 0 137 10" fill="none" xmlns="http://www.w3.org/2000/svg">
<path d="M0.0685075 9.58832H2.62835V2.94522H6.28704V9.58832H8.84688V0.722532H0.0685075V9.58832ZM15.0846 9.73816C17.7569 9.73816 19.8422 7.91506 19.8422 5.15543C19.8422 2.35833 17.7569 0.572688 15.0846 0.572688C12.4124 0.572688 10.3271 2.35833 10.3271 5.15543C10.3271 7.91506 12.3999 9.73816 15.0846 9.73816ZM15.0846 7.46552C13.736 7.46552 12.9244 6.45408 12.9244 5.15543C12.9244 3.85677 13.7485 2.84533 15.0846 2.84533C16.4332 2.84533 17.2449 3.85677 17.2449 5.15543C17.2449 6.45408 16.4332 7.46552 15.0846 7.46552ZM24.2885 5.89216L24.6007 2.94522H27.2854V9.58832H29.8453V0.722532H22.4405L21.916 5.71734C21.8036 6.74128 21.5664 7.15335 20.7048 7.15335H20.5175V9.71319H20.7173C23.3645 9.71319 24.0263 8.452 24.2885 5.89216ZM35.8086 9.58832L41.1531 0.722532H38.3809L36.2706 4.2189L33.9605 0.722532H30.9012L34.8221 6.62889L33.0365 9.58832H35.8086ZM47.9232 9.58832H50.483V0.722532H47.9232V4.39372C47.9232 4.39372 46.9866 4.55605 45.8878 4.55605C44.9013 4.55605 44.4018 4.19392 44.4018 3.21994V0.722532H41.842V3.21994C41.842 5.82972 43.228 6.77874 45.6505 6.77874C46.7119 6.77874 47.9232 6.61641 47.9232 6.61641V9.58832ZM52.3579 9.58832H54.9177L58.8262 4.26885V9.58832H61.386V0.722532H58.8262L54.9177 6.06698V0.722532H52.3579V9.58832ZM65.9319 9.58832H68.4792V2.92025H71.6884V0.722532H62.7227V2.92025H65.9319V9.58832ZM78.2719 3.31983H75.5747V0.722532H73.0273V9.58832H78.2719C80.3947 9.58832 81.6933 8.53941 81.6933 6.45408C81.6933 4.36874 80.3947 3.31983 78.2719 3.31983ZM77.9347 5.51755C78.7089 5.51755 79.0711 5.86719 79.0711 6.45408C79.0711 7.09091 78.7089 7.3906 77.9347 7.3906H75.5747V5.51755H77.9347ZM91.4552 4.01911H88.708V2.92025H94.0275V0.722532H86.1607V9.58832H91.4552C93.553 9.58832 94.8267 8.62682 94.8267 6.70382C94.8267 4.91817 93.553 4.01911 91.4552 4.01911ZM91.2429 6.01703C91.8922 6.01703 92.2044 6.26677 92.2044 6.70382C92.2044 7.17832 91.8922 7.3906 91.2429 7.3906H88.708V6.01703H91.2429ZM100.701 9.73816C103.373 9.73816 105.459 7.91506 105.459 5.15543C105.459 2.35833 103.373 0.572688 100.701 0.572688C98.029 0.572688 95.9437 2.35833 95.9437 5.15543C95.9437 7.91506 98.0165 9.73816 100.701 9.73816ZM100.701 7.46552C99.3526 7.46552 98.541 6.45408 98.541 5.15543C98.541 3.85677 99.3651 2.84533 100.701 2.84533C102.05 2.84533 102.861 3.85677 102.861 5.15543C102.861 6.45408 102.05 7.46552 100.701 7.46552ZM106.94 9.58832H109.5V6.26677H113.283V9.58832H115.843V0.722532H113.283V4.04408H109.5V0.722532H106.94V9.58832ZM121.815 9.58832L127.16 0.722532H124.388L122.277 4.2189L119.967 0.722532H116.908L120.829 6.62889L119.043 9.58832H121.815ZM131.952 9.73816C135.074 9.73816 136.073 7.45304 136.198 6.62889H133.613C133.476 6.84117 133.026 7.45304 131.952 7.45304C130.691 7.45304 129.942 6.4291 129.942 5.15543C129.942 3.88175 130.691 2.85781 131.952 2.85781C133.001 2.85781 133.463 3.48216 133.6 3.69444H136.198C136.035 2.69548 134.974 0.572688 131.952 0.572688C129.23 0.572688 127.332 2.4832 127.332 5.15543C127.332 7.81516 129.23 9.73816 131.952 9.73816Z" fill="white"/>
</svg>
