<svg width="167" height="59" viewBox="0 0 167 59" fill="none" xmlns="http://www.w3.org/2000/svg">
<path d="M13.3375 3.03407H1.3272V8.63346H7.57579V30.2195H13.3375V3.03407ZM17.3139 19.7511C17.3139 26.2837 21.98 30.8281 28.2286 30.8281C34.4772 30.8281 39.3868 26.3649 39.3868 19.7511V13.4619C39.3868 6.84815 34.5178 2.42544 28.3098 2.42544C22.0612 2.42544 17.3139 6.88872 17.3139 13.5025V19.7511ZM23.0755 13.5025C23.0755 10.1347 25.3072 8.14656 28.3098 8.14656C31.3529 8.14656 33.5845 10.1753 33.5845 13.4619V19.7511C33.5845 23.0783 31.2718 25.0665 28.2286 25.0665C25.2666 25.0665 23.0755 23.1188 23.0755 19.7511V13.5025ZM51.5096 19.7511C51.5096 26.2837 56.1758 30.8281 62.4244 30.8281C68.673 30.8281 73.5826 26.3649 73.5826 19.7511V13.4619C73.5826 6.84815 68.7136 2.42544 62.5055 2.42544C56.2569 2.42544 51.5096 6.88872 51.5096 13.5025V19.7511ZM57.2713 13.5025C57.2713 10.1347 59.503 8.14656 62.5055 8.14656C65.5487 8.14656 67.7803 10.1753 67.7803 13.4619V19.7511C67.7803 23.0783 65.4675 25.0665 62.4244 25.0665C59.4624 25.0665 57.2713 23.1188 57.2713 19.7511V13.5025ZM76.7899 19.7511C76.7899 26.2837 81.4561 30.8281 87.7047 30.8281C93.9533 30.8281 98.8629 26.3649 98.8629 19.7511V13.4619C98.8629 6.84815 93.9939 2.42544 87.7858 2.42544C81.5372 2.42544 76.7899 6.88872 76.7899 13.5025V19.7511ZM82.5516 13.5025C82.5516 10.1347 84.7833 8.14656 87.7858 8.14656C90.829 8.14656 93.0606 10.1753 93.0606 13.4619V19.7511C93.0606 23.0783 90.7478 25.0665 87.7047 25.0665C84.7427 25.0665 82.5516 23.1188 82.5516 19.7511V13.5025ZM102.07 19.7511C102.07 26.2837 106.736 30.8281 112.985 30.8281C119.234 30.8281 124.143 26.3649 124.143 19.7511V13.4619C124.143 6.84815 119.274 2.42544 113.066 2.42544C106.818 2.42544 102.07 6.88872 102.07 13.5025V19.7511ZM107.832 13.5025C107.832 10.1347 110.064 8.14656 113.066 8.14656C116.109 8.14656 118.341 10.1753 118.341 13.4619V19.7511C118.341 23.0783 116.028 25.0665 112.985 25.0665C110.023 25.0665 107.832 23.1188 107.832 19.7511V13.5025ZM152.883 19.0207C164.366 19.0207 164.325 3.03407 152.883 3.03407H141.157V14.03H137.708V19.0207H141.157V21.2118H137.708V26.2026H141.157V30.2195H146.918V26.2026H157.549V21.2118H146.918V19.0207H152.883ZM152.437 8.63346C156.494 8.63346 156.453 14.03 152.437 14.03H146.918V8.63346H152.437Z" fill="#06DCFF"/>
<path d="M1.54793 51.4183H4.59128V47.4694H9.0895V51.4183H12.1329V40.8779H9.0895V44.8269H4.59128V40.8779H1.54793V51.4183ZM19.5598 51.5965C22.7368 51.5965 25.216 49.429 25.216 46.1481C25.216 42.8227 22.7368 40.6998 19.5598 40.6998C16.3829 40.6998 13.9037 42.8227 13.9037 46.1481C13.9037 49.429 16.368 51.5965 19.5598 51.5965ZM19.5598 48.8946C17.9565 48.8946 16.9915 47.6921 16.9915 46.1481C16.9915 44.6042 17.9714 43.4017 19.5598 43.4017C21.1632 43.4017 22.1281 44.6042 22.1281 46.1481C22.1281 47.6921 21.1632 48.8946 19.5598 48.8946ZM26.9768 51.4183H33.598C36.0475 51.4183 37.3242 50.2307 37.3242 48.4195C37.3242 46.9943 36.5226 46.163 35.6318 45.8364C36.3444 45.5246 37.0422 44.8269 37.0422 43.7432C37.0422 42.0508 35.81 40.8779 33.5089 40.8779H26.9768V51.4183ZM32.9151 43.2532C33.5386 43.2532 33.9394 43.4759 33.9394 44.0401C33.9394 44.6042 33.5386 44.8269 32.9151 44.8269H29.9608V43.2532H32.9151ZM32.9596 47.2022C33.7613 47.2022 34.2067 47.4842 34.2067 48.1226C34.2067 48.7461 33.7613 49.043 32.9596 49.043H29.9608V47.2022H32.9596ZM45.3031 43.9658H42.0964V40.8779H39.0679V51.4183H45.3031C47.8268 51.4183 49.3708 50.1713 49.3708 47.6921C49.3708 45.2129 47.8268 43.9658 45.3031 43.9658ZM50.3357 51.4183H53.3791V40.8779H50.3357V51.4183ZM44.9022 46.5787C45.8227 46.5787 46.2532 46.9943 46.2532 47.6921C46.2532 48.4492 45.8227 48.8055 44.9022 48.8055H42.0964V46.5787H44.9022ZM55.6097 51.4183H58.4007V44.2776L60.9838 51.4183H63.0029L65.6305 44.2182V51.4183H68.5996V40.8779H64.3835L62.2012 46.7271L60.0189 40.8779H55.6097V51.4183ZM74.4712 51.4183H77.5146L82.1612 45.0941V51.4183H85.2046V40.8779H82.1612L77.5146 47.2319V40.8779H74.4712V51.4183ZM87.4321 51.4183H90.4755V43.4908H96.9185V40.8779H87.4321V51.4183ZM98.4793 51.4183H101.508V48.0335H104.952C107.387 48.0335 108.871 46.8013 108.871 44.4557C108.871 42.0953 107.387 40.8779 104.952 40.8779H98.4793V51.4183ZM104.581 43.4908C105.383 43.4908 105.754 43.8174 105.754 44.4557C105.754 45.0644 105.368 45.4207 104.581 45.4207H101.508V43.4908H104.581ZM115.752 51.5965C118.929 51.5965 121.408 49.429 121.408 46.1481C121.408 42.8227 118.929 40.6998 115.752 40.6998C112.575 40.6998 110.096 42.8227 110.096 46.1481C110.096 49.429 112.56 51.5965 115.752 51.5965ZM115.752 48.8946C114.149 48.8946 113.184 47.6921 113.184 46.1481C113.184 44.6042 114.163 43.4017 115.752 43.4017C117.355 43.4017 118.32 44.6042 118.32 46.1481C118.32 47.6921 117.355 48.8946 115.752 48.8946ZM123.169 51.4183H126.212V46.8162L130.428 51.4183H134.541L129.478 45.9106L134.318 40.8779H130.428L126.212 45.2723V40.8779H123.169V51.4183ZM143.508 51.4183H146.789L142.321 40.8779H139.04L134.541 51.4183H137.629L138.238 49.9338H142.899L143.508 51.4183ZM139.277 47.4397L140.569 44.2924L141.86 47.4397H139.277ZM148.047 51.4183H150.838V44.2776L153.421 51.4183H155.44L158.068 44.2182V51.4183H161.037V40.8779H156.821L154.638 46.7271L152.456 40.8779H148.047V51.4183Z" fill="white"/>
<path d="M163.742 0.902457L163.751 2.08576L162.692 1.69429L162.283 2.78862L163.43 3.19788L162.612 4.14986L163.582 4.90611L164.356 3.97192L165.13 4.89721L166.099 4.14096L165.281 3.19788L166.429 2.78862L166.019 1.69429L164.961 2.08576L164.97 0.902457H163.742Z" fill="#06DCFF"/>
</svg>
