<svg width="165" height="16" viewBox="0 0 165 16" fill="none" xmlns="http://www.w3.org/2000/svg">
<path d="M0.76001 12.0001H2.31201V7.26412H6.66401C9.17601 7.26412 10.488 5.92012 10.488 3.92012C10.488 1.84012 9.17601 0.640121 6.66401 0.640121H0.76001V12.0001ZM6.71201 2.08012C8.16801 2.08012 8.88801 2.76812 8.88801 3.95212C8.88801 5.04012 8.16801 5.82412 6.71201 5.82412H2.31201V2.08012H6.71201Z" fill="white"/>
<path d="M15.8186 3.90412C13.4986 3.90412 11.8026 5.64812 11.8026 8.04812C11.8026 10.3681 13.5306 12.1921 15.9626 12.1921C18.6186 12.1921 19.6426 10.4161 19.7546 9.74412H18.3146C18.1706 10.0001 17.5626 10.8481 15.9626 10.8481C14.4106 10.8481 13.3546 9.69612 13.2746 8.22412H19.8506C19.8506 5.63212 18.1386 3.90412 15.8186 3.90412ZM15.8186 5.15212C17.0026 5.15212 17.8826 5.82412 18.2346 7.00812H13.3706C13.6746 5.87212 14.5546 5.15212 15.8186 5.15212Z" fill="white"/>
<path d="M22.1595 12.0001H23.5675V8.38412L27.9515 12.0001H30.0155L25.1355 7.88812L29.8075 4.09612H27.7275L23.5675 7.52012V4.09612H22.1595V12.0001Z" fill="white"/>
<path d="M32.3006 8.48012C32.1246 10.2881 31.9006 10.8001 30.8126 10.8001H30.6206V12.1121H31.0526C32.7486 12.1121 33.3566 11.0081 33.5966 8.57612L33.9006 5.40812H37.1646V12.0001H38.6206V4.09612H32.7326L32.3006 8.48012Z" fill="white"/>
<path d="M47.709 10.6401V12.0001H49.165V4.09612H47.709V5.40812C47.517 4.99212 46.637 3.90412 44.909 3.90412C42.829 3.90412 41.053 5.47212 41.053 8.04812C41.053 10.6561 42.829 12.1921 44.909 12.1921C46.701 12.1921 47.517 11.0401 47.709 10.6401ZM47.741 8.04812C47.741 9.61612 46.717 10.8481 45.181 10.8481C43.597 10.8481 42.557 9.61612 42.557 8.04812C42.557 6.46412 43.597 5.24812 45.181 5.24812C46.717 5.24812 47.741 6.46412 47.741 8.04812Z" fill="white"/>
<path d="M52.1759 12.0001H53.5519V5.85612L56.6879 12.0481H57.6959L60.8639 5.79212V12.0001H62.2879V4.09612H60.4159L57.2639 10.3201L54.1119 4.09612H52.1759V12.0001Z" fill="white"/>
<path d="M71.3809 10.6401V12.0001H72.8369V4.09612H71.3809V5.40812C71.1889 4.99212 70.3089 3.90412 68.5809 3.90412C66.5009 3.90412 64.7249 5.47212 64.7249 8.04812C64.7249 10.6561 66.5009 12.1921 68.5809 12.1921C70.3729 12.1921 71.1889 11.0401 71.3809 10.6401ZM71.4129 8.04812C71.4129 9.61612 70.3889 10.8481 68.8529 10.8481C67.2689 10.8481 66.2289 9.61612 66.2289 8.04812C66.2289 6.46412 67.2689 5.24812 68.8529 5.24812C70.3889 5.24812 71.4129 6.46412 71.4129 8.04812Z" fill="white"/>
<path d="M75.7518 12.0001H77.6078V9.72812H75.7518V12.0001Z" fill="white"/>
<path d="M86.194 10.7201C86.386 11.0881 87.314 12.1921 89.074 12.1921C91.186 12.1921 92.962 10.6561 92.962 8.04812C92.962 5.45612 91.186 3.90412 89.074 3.90412C87.298 3.90412 86.37 5.04012 86.194 5.44012V0.224121H84.754V12.0001H86.194V10.7201ZM86.162 8.04812C86.162 6.44812 87.218 5.24812 88.818 5.24812C90.418 5.24812 91.474 6.44812 91.474 8.04812C91.474 9.63212 90.418 10.8481 88.818 10.8481C87.218 10.8481 86.162 9.63212 86.162 8.04812Z" fill="white"/>
<path d="M98.8186 3.90412C96.4986 3.90412 94.8026 5.64812 94.8026 8.04812C94.8026 10.3681 96.5306 12.1921 98.9626 12.1921C101.619 12.1921 102.643 10.4161 102.755 9.74412H101.315C101.171 10.0001 100.563 10.8481 98.9626 10.8481C97.4106 10.8481 96.3546 9.69612 96.2746 8.22412H102.851C102.851 5.63212 101.139 3.90412 98.8186 3.90412ZM98.8186 5.15212C100.003 5.15212 100.883 5.82412 101.235 7.00812H96.3706C96.6746 5.87212 97.5546 5.15212 98.8186 5.15212Z" fill="white"/>
<path d="M106.504 9.36012C106.504 11.1201 107.4 12.0001 109.272 12.0001H111.144V10.6561H109.592C108.344 10.6561 107.96 10.1761 107.96 9.02412V5.40812H111.144V4.09612H107.96V0.640121H106.504V4.09612H104.168V5.40812H106.504V9.36012Z" fill="white"/>
<path d="M119.075 6.56012H120.547C120.435 5.96812 119.619 3.90412 116.771 3.90412C114.515 3.90412 112.771 5.71212 112.771 8.04812C112.771 10.3841 114.531 12.1921 116.787 12.1921C119.619 12.1921 120.451 10.0801 120.547 9.53612H119.107C118.979 9.80812 118.387 10.8481 116.787 10.8481C115.315 10.8481 114.275 9.60012 114.275 8.04812C114.275 6.49612 115.315 5.24812 116.771 5.24812C118.339 5.24812 118.947 6.30412 119.075 6.56012Z" fill="white"/>
<path d="M122.847 2.57612H124.367V0.288121H122.847V2.57612ZM122.879 12.0001H124.335V4.09612H122.879V12.0001Z" fill="white"/>
<path d="M128.675 9.36012C128.675 11.1201 129.571 12.0001 131.443 12.0001H133.315V10.6561H131.763C130.515 10.6561 130.131 10.1761 130.131 9.02412V5.40812H133.315V4.09612H130.131V0.640121H128.675V4.09612H126.339V5.40812H128.675V9.36012Z" fill="white"/>
<path d="M136.365 15.5841H137.853L143.037 4.09612H141.533L138.829 10.1121L136.125 4.09612H134.477L138.061 11.8241L136.365 15.5841Z" fill="white"/>
<path d="M144.174 12.0001H146.03V9.72812H144.174V12.0001Z" fill="white"/>
<path d="M150.398 7.53612C150.398 6.12812 151.086 5.48812 153.118 5.48812H155.134V4.03212H153.15C151.294 4.03212 150.622 4.97612 150.398 5.55212V4.09612H148.942V12.0001H150.398V7.53612Z" fill="white"/>
<path d="M160.776 12.1761C163.048 12.1761 164.472 10.6881 164.472 8.65612V4.09612H163V8.38412C163 9.84012 162.184 10.8161 160.76 10.8161C159.336 10.8161 158.52 9.84012 158.52 8.38412V4.09612H157.064V8.65612C157.064 10.6881 158.504 12.1761 160.776 12.1761Z" fill="white"/>
</svg>
